<?xml version="1.0" encoding="utf-8"?>
<!-- Generator: Adobe Illustrator 18.1.0, SVG Export Plug-In . SVG Version: 6.00 Build 0)  -->
<!DOCTYPE svg PUBLIC "-//W3C//DTD SVG 1.1//EN" "http://www.w3.org/Graphics/SVG/1.1/DTD/svg11.dtd">
<svg version="1.1" id="Layer_1" xmlns="http://www.w3.org/2000/svg" xmlns:xlink="http://www.w3.org/1999/xlink" x="0px" y="0px"
	 viewBox="0 0 549 675.9" enable-background="new 0 0 549 675.9" xml:space="preserve">
<g>
	<g>
		<path fill="#BCBF1D" d="M410.8,321.7c38.1-13.5,41-40.4,50.9-71.3c14.9-47.3,0-88.6-53.7-145.6c-53.7-57-166.2-40.2-166.2-40.2
			s-135.3,66.7-131.9,155.3c1.3,32.4,7.2,52.6,14.9,65.7c0,0.4,0,0.8,0,1.3c0,31.1-23.4,33.7-33.7,10.3s19.8-6.1,19.8-6.1
			s13.9-18.7-23.8-26.7c-18.1-3.8-27.1,48.4-6.5,78.3c15.8,23.1,55.8,0.2,71.1-32.6c5.3,2.7,9.9,4.8,12.8,7.8
			c0,0,28.6,20.6,20.4,33.9c-8.4,13.7-6.5,34.3-22.7,61.4c-18.7,31.6-41.9,27.1-41.9,27.1c3.4,23.4,47.8-3.6,54.3-6.9
			c38.9-19.8,46.1-17.7,56.2-6.1c0.2,0.2,0.2,0.2,0.4,0.4c0,0.2,0,0.6,0,0.8c2.5,14.3-0.4,23.8-16.8,23.8c-3.8,0-16.4,0.8,1.3,7.4
			c10.9,4,27.1,1.3,36.2-13c7.8-12.2,20.4-21.3,35.1-22.7c12,1.7,27.1,6.3,42.3,12.4c17.9,9.7,29.9,23.4,41.2,27.1
			c15.6,5.3,29.5-9.5,23.4-8.6c-21.7,2.5-25-8.6-29.3-14.7c-4.8-6.7-3.2-12-5.1-16.8c7.6-2.5,33.9,16.2,54.1,19.4
			c38.9,6.1,39.8-6.9,39.8-6.9c0-2.5-6.7,0.6-18.1-2.5c-3.8-1.1-11.4-5.1-14.7-7.8c-15.2-12-23.6-24.8-29.9-38.7
			c-3.6-8.2-9.9-16.8-7.4-25.9C387.9,346.1,392.1,328.5,410.8,321.7z M208.1,192.1c-58.7,6.9-67.3-32.8-67.3-32.8
			c53.5-20.6,81,25.9,81,25.9L208.1,192.1z M341.1,193.8c0,0,58.7-48.4,100.2-17.3c0,0,15.6,5.3-17.3,22.5S341.1,193.8,341.1,193.8z
			"/>
		<path fill="none" d="M424.1,199c32.8-17.3,17.3-22.5,17.3-22.5c-41.5-31.1-100.2,17.3-100.2,17.3S391.2,216.3,424.1,199z"/>
		<path fill="none" d="M141,159.3c0,0,8.6,39.8,67.3,32.8l13.9-6.9C222,185.2,194.5,138.6,141,159.3z"/>
	</g>
	<g>
		<path fill="none" d="M424.1,199c32.8-17.3,17.3-22.5,17.3-22.5c-41.5-31.1-100.2,17.3-100.2,17.3S391.2,216.3,424.1,199z"/>
		<path fill="none" d="M141,159.3c0,0,8.6,39.8,67.3,32.8l13.9-6.9C222,185.2,194.5,138.6,141,159.3z"/>
	</g>
	<path fill="#94C11C" d="M363.9,460.4c-0.2,0.6-0.2,1.1-0.4,1.7C362.2,464,363.9,462.9,363.9,460.4z"/>
	<ellipse fill="#FFFFFF" cx="187.9" cy="174" rx="58.3" ry="25.9"/>
	<ellipse fill="#FFFFFF" cx="395" cy="185.6" rx="58.3" ry="25.9"/>
	<g>
		<path fill="#FFFFFF" d="M275.5,282.2c-22.7,0-41,18.3-41,41c0,22.7,18.3,41,41,41c22.7,0,41-18.3,41-41
			C316.5,300.5,298.2,282.2,275.5,282.2z"/>
		<path fill="none" d="M275.5,282.2c-22.7,0-41,18.3-41,41c0,22.7,18.3,41,41,41c22.7,0,41-18.3,41-41
			C316.5,300.5,298.2,282.2,275.5,282.2z"/>
		<g>
			<path fill="none" d="M275.5,282.2c-22.7,0-41,18.3-41,41c0,22.7,18.3,41,41,41c22.7,0,41-18.3,41-41
				C316.5,300.5,298.2,282.2,275.5,282.2z"/>
			<path d="M330.8,317.9c-2.7-28.2-26.3-50.3-55.3-50.3s-52.8,22.3-55.3,50.7c-9.9,0.6-44.6,2.5-53.5-0.4
				c-10.3-3.4,18.7,16.6,16,35.8c-1.7,11.2,40,5.5,49.5,4.2c10.1,12.6,25.9,20.8,43.4,20.8c16.6,0,31.6-7.4,41.9-19.2
				c11.4,1.5,65.7,8,65.7,3.4c0-9,15.6-34.3,15.6-34.3C375.2,331.4,344.9,321.7,330.8,317.9z M275.5,364.2c-22.7,0-41-18.3-41-41
				c0-22.7,18.3-41,41-41c22.7,0,41,18.3,41,41C316.5,345.9,298.2,364.2,275.5,364.2z"/>
		</g>
	</g>
	<polyline fill="#FFFFFF" points="225.6,213.6 234,238.6 244.3,216.7 	"/>
	<polyline fill="#FFFFFF" points="281.4,222 287.7,243.9 299.9,222.4 	"/>
	<polyline points="250.7,305.9 252.1,295 298,296.9 270.9,339.6 296.7,340.3 294,349.3 250.7,349.9 278.6,306.6 251.3,306.6 	"/>
	<path d="M460.3,103.1c-2.5-1.7-3.4-1.7-5.9-2.7c-9.9-3.4-35.4-9.9-66.7-17.5c0.6-7.8,3.2-30.1,3.2-36.2c0-0.8,0.2-0.8-0.4-3.2
		c-1.1-2.7-2.1-3.2-2.5-3.6c-1.7-1.3-2.1-1.3-3.2-1.7c-6.5-2.7-27.1-9-48-15.2c-10.5-2.9-20.8-5.9-29.7-8s-15.2-3.6-19.8-3.6
		c-0.8,0-1.7,0-3.2,0.4c-1.3,0.2-4.8,1.9-5.5,6.3c0,0,0,0,0,0.4c-0.8,3.2-4.2,12.8-7.2,21.3c-2.5,6.9-4.8,13.3-5.7,15.4
		c-7.2-1.5-13.9-2.9-20.2-4.2c-22.9-4.4-39.8-7.4-47.6-7.6c-1.1,0-2.1,0-3.4,0.2c-1.1,0.4-3.4,0.2-5.7,4l0,0
		c-0.2,0.2-0.2,0.4-0.4,0.8l0,0l0,0c-0.2,0.6-0.6,1.7-0.6,2.9c0.6,5.3,2.9,5.9,3.8,6.7c3.8,2.5,8.6,3.8,16.6,6.3
		c27.1,8,84.2,20.6,136.8,31.6c26.3,5.5,51.6,10.5,71.1,14.1c19.6,3.6,32.8,5.9,38.5,5.9h0.4h0.4c0.6,0,1.3,0,2.5-0.4
		c0.6-0.2,1.5-0.6,2.7-1.7c1.3-1.1,2.5-3.2,2.3-5.5C462.8,104.1,460.7,103.7,460.3,103.1z"/>
	<path d="M92.6,266.4l-0.6,2.5L8,80.8l67.1,193.8c-5.5,2.7-11.6,7.2-17.3,14.1c-10.3,12.4,5.5,13,25.5,5.1L94.9,319l12.2-1.9
		l-12.8-28.6c6.3-3.4,12.8-7.6,18.5-12.4C141,252.7,92.6,266.4,92.6,266.4z"/>
	<g>
		<path fill="#BCBF1D" d="M113.5,276.1c20.4,32.6-14.9,53.9-37.5,53.9c-17.3,0-26.7-25.3-13-14.9c18.1,13.7,33.7-13.7,33.7-13.7
			s2.9-8.2,2.1-15.8"/>
		<path fill="#FFFFFF" d="M55.2,314.4c0-0.6,0.2-1.5,0.6-2.1l0,0c0.4-0.6,1.3-1.1,2.1-1.1l0,0c1.7,0,3.4,0.8,5.9,2.7l0,0
			c3.4,2.5,6.7,3.6,9.7,3.6l0,0c12.2,0.2,22.1-16.6,22.1-16.8l0,0c0,0,1.9-3.2,1.9-9.3l0,0c0-0.8-0.4-3.8-0.4-4.4l2.3-1.7
			c0.6,4.4,0.8,5.3,0.8,6.1l0,0c0,6.5-2.1,10.3-2.3,10.5l0,0c-0.2,0-9.9,17.9-24.2,18.1l0,0c-3.6,0-7.4-1.3-11.2-4l0,0
			c-2.3-1.7-3.8-2.3-4.4-2.3l0,0c-0.2,0-0.2,0-0.2,0l0,0c0,0,0,0.2,0,0.4l0,0c0,1.5,1.7,5.5,5.1,8.6l0,0c3.4,3.2,7.8,5.9,13.3,5.9
			l0,0c8.8,0,19.6-3.2,28.2-8.8l0,0c8.6-5.7,14.7-13.9,14.7-24l0,0c0-4.8-2.7-13.5-6.3-19.8c-0.2-0.4,1.9-1.7,2.1-1.5
			c3.8,6.5,6.7,15.8,6.7,21.3l0,0c-0.2,22.5-27.1,35.4-45.7,35.4l0,0C63.6,331,55.4,319.8,55.2,314.4L55.2,314.4z"/>
	</g>
	<g>
		<path fill="#BCBF1D" d="M457.5,242c0,0,42.9,28.4,24.6,42.3c-20.4,15.4-63.1,26.1-42.9,44c16,14.1,16.2-14.3,15.8-17.7
			c-0.6-5.5,15.6,3.6,12.2,19.8c-7.8,37-56.2,6.5-58.7-11.4c-2.5-18.1,15.8-12.2,33-33.5c0,0,8-4.6,6.5-19.8"/>
		<path fill="#FFFFFF" d="M448.3,349.1c-17.5-0.2-38.9-17.3-40.8-29.9l0,0c-0.2-1.3-0.2-2.3-0.2-3.4l0,0c0-7.8,5.1-11.2,11.2-14.3
			l0,0c6.3-3.4,14.3-7.2,22.3-16.8l0,0l0.2-0.2l0.2-0.2c0,0,1.5-0.8,2.9-3.2l0,0c1.5-2.3,3.2-6.1,3.2-12l0,0c0-1.1,0-2.1-0.2-3.4
			l0,0l2.5-0.2c0,1.3,0.2,2.3,0.2,3.6l0,0c0,11.8-5.9,16.4-7.2,17.3l0,0c-8.2,10.1-16.6,14.1-22.9,17.5l0,0c-6.3,3.4-9.7,5.5-9.9,12
			l0,0c0,0.8,0,1.9,0.2,2.9l0,0c1.3,10.5,22.5,28,38.3,27.8l0,0c8.2,0,14.9-4.2,17.7-16.4l0,0c0.2-1.5,0.4-2.7,0.4-4l0,0
			c0-4.8-1.9-8.8-4.2-11.6l0,0c-2.3-2.7-5.1-4.2-5.9-4.2l0,0l0,0c0,0,0,0,0,0.2l0,0c0,0.4,0,1.3,0,2.5l0,0
			c-0.2,5.9-0.6,19.8-9.5,20.4l0,0c-2.5,0-5.3-1.3-8.6-4.2l0,0c-3.8-3.4-5.7-6.7-5.7-10.1l0,0c0.6-14.5,32.4-23.1,48.8-35.8l0,0
			c2.9-2.3,4-4.6,4-7.4l0,0c0.2-6.3-6.9-14.9-14.1-21.5l0,0c-6.9-6.3-14.1-11.2-14.3-11.4l0,0l1.5-2.1c0,0.2,29.3,18.9,29.7,34.7
			l0,0c0,3.6-1.7,6.9-5.1,9.5l0,0c-17,12.6-48.4,22.9-47.8,33.7l0,0c0,2.3,1.3,5.1,4.8,8.2l0,0c2.9,2.7,5.3,3.6,6.7,3.6l0,0
			c2.5,0,4.4-2.5,5.5-6.5l0,0c1.1-3.8,1.5-8.6,1.5-11.4l0,0c0-1.1,0-1.9,0-2.1l0,0c0-0.2,0-0.2,0-0.4l0,0c0-0.6,0.2-1.5,0.8-1.9l0,0
			c0.6-0.4,1.3-0.6,1.9-0.6l0,0c4.4,0.2,12.4,7.2,12.6,18.3l0,0c0,1.5-0.2,2.9-0.4,4.6l0,0c-2.7,13-10.7,18.5-20,18.5l0,0
			C448.3,349.1,448.3,349.1,448.3,349.1L448.3,349.1z M456.7,243L456.7,243L456.7,243L456.7,243L456.7,243L456.7,243z"/>
	</g>
	<g>
		<path fill="none" d="M163.3,154.2c0.6,0.2,1.3,0.6,1.9,1.1c3.4,2.9,0.8,20.8-3.4,29.9c10.1,5.9,24.8,9.7,46.5,7.2l13.9-6.9
			C222,185.2,202,151.5,163.3,154.2z"/>
		<path fill="none" d="M370.4,175.9c-17,8-29.3,17.9-29.3,17.9s12.6,5.7,29.3,9C369.3,195.7,370,181.6,370.4,175.9z"/>
		<path fill="none" d="M157.2,155.1c0,0,0.2-0.2,0.6-0.4c-5.5,0.8-11.2,2.3-17,4.6c0,0,2.7,12.8,16,22.5
			C156.2,171.9,157.2,155.1,157.2,155.1z"/>
		<path fill="none" d="M441.3,176.5c-20-15.2-44.2-11.4-63.8-3.8c0.2,0.2,0.4,0.2,0.8,0.4c3.6,2.9,0.6,21.5-3.6,30.3
			c15.8,2.7,34.3,3.2,49.5-4.6C456.7,181.8,441.3,176.5,441.3,176.5z"/>
		<path d="M441.7,145.4c-5.3-1.7-138.9,29.3-161,22.5c-39.8-12-126.1-39.8-126.1-39.8c-13.9,1.7-47.6,58.7-41.5,63.8
			c11.4,9.7,89.6,15.6,148.4,27.6c58.7,12,205.4-13,205.4-13C465.5,175.7,446.8,147.3,441.7,145.4z M141,159.3
			c6.1-2.3,11.8-3.8,17-4.6c-0.4,0.2-0.6,0.4-0.6,0.4s-1.1,16.8-0.4,26.7C143.8,172.1,141,159.3,141,159.3z M208.1,192.1
			c-10.9,2.7-36.4-1.3-46.5-7.2c4.2-9,6.7-26.9,3.4-29.9c-0.6-0.4-1.3-0.8-1.9-1.1c38.7-2.5,58.7,30.9,58.7,30.9
			S219.3,189.2,208.1,192.1z M341.1,193.8c0,0,12.2-9.9,29.3-17.9c-0.2,5.7-0.8,19.8,0,26.9C353.8,199.5,341.1,193.8,341.1,193.8z
			 M424.1,199c-14.9,8-33.7,7.4-49.5,4.6c4.4-8.8,7.2-27.4,3.6-30.3c-0.2-0.2-0.4-0.4-0.8-0.4c19.6-7.8,43.8-11.4,63.8,3.8
			C441.3,176.5,456.7,181.8,424.1,199z"/>
	</g>
</g>
<g>
	<path d="M178.1,517.9l-18.5-0.1c-1.1,0.3-2,0-2.7-0.8c-0.6-0.8-0.9-1.7-0.9-2.7c0-1,0.3-1.9,1-2.8c0.7-0.9,1.8-1.2,3.3-1.1
		c0.2,0,1.2,0,3,0c1.8,0,3.8,0,6,0c2.2,0,4.3,0,6.2-0.1c1.9,0,3.1-0.1,3.6-0.1c1.1,0,2.2,0.1,3.2,0.4c1,0.2,1.7,0.7,2.4,1.4
		c0.6,0.7,1,1.7,1.2,2.9c0.2,1.2,0,2.9-0.6,5l-21.6,91.3h19.8c1.2,0,2.1,0.5,2.4,1.4c0.4,0.9,0.5,1.9,0.3,2.9
		c-0.2,1-0.6,1.9-1.3,2.6c-0.7,0.7-1.5,0.9-2.4,0.5c-2.8,0.4-5.9,0.4-9.5,0.1c-3.5-0.3-7-0.2-10.5,0.1c-1.1,0-2-0.1-2.9-0.2
		c-0.9-0.1-1.7-0.5-2.4-0.9c-0.7-0.5-1.1-1.2-1.4-2.2c-0.3-1-0.3-2.3,0-4L178.1,517.9z"/>
	<path d="M192.6,605.9c-0.4-5.5-0.6-11-0.8-16.7c-0.1-5.7-0.2-11.3-0.1-16.9c0.1-5.6,0.2-10.9,0.4-16c0.1-5.1,0.3-9.6,0.5-13.7
		c0.4-7.4,1.9-12.9,4.6-16.5c2.7-3.6,5.7-5.3,8.9-5.2c3.2,0.1,6,1.9,8.5,5.5c2.5,3.6,3.8,9,3.9,16.2c0.1,5.7,0.1,11.5,0.1,17.6
		c0,6.1,0,12-0.1,17.7c-0.1,5.7-0.2,11-0.4,15.9c-0.2,4.9-0.4,8.9-0.7,12.1c-0.4,4.2-1.8,7.4-4.2,9.7c-2.4,2.3-5,3.4-7.8,3.4
		c-1.4,0-2.9-0.3-4.4-0.9c-1.5-0.6-2.8-1.5-4-2.7c-1.2-1.1-2.2-2.5-3-4.2C193.2,609.6,192.7,607.8,192.6,605.9z M211.5,542.7
		c0-4.9-0.6-8.4-1.7-10.4c-1.1-2.1-2.3-3.1-3.7-3.2c-1.5-0.1-2.9,0.9-4.2,3.1c-1.3,2.2-2,5.7-2.2,10.6c-0.2,5.4-0.4,11-0.6,17
		c-0.2,5.9-0.3,11.7-0.3,17.3c0,5.6,0.1,10.9,0.2,15.8c0.1,4.9,0.5,9.1,0.9,12.4c0.3,2.1,0.9,3.7,1.9,4.7c1,1,2,1.5,3.2,1.5
		c1.2,0,2.4-0.5,3.4-1.6c1.1-1.1,1.7-2.4,1.9-4.2c0.4-3.7,0.7-8.1,0.9-13c0.2-4.9,0.3-10.2,0.4-15.8c0-5.6,0-11.3,0-17.2
		C211.5,553.8,211.5,548.1,211.5,542.7z"/>
	<path d="M224.5,616.1c0-7.4,0-14,0-19.8c0-5.8,0-11.1,0-15.9c0-4.8,0-9.3,0-13.5c0-4.2,0-8.5-0.1-12.9c-0.1-4.4-0.2-8.9-0.4-13.7
		c-0.1-4.8-0.3-10.2-0.5-16.1c0-1.1,0.4-2,1.1-2.5c0.8-0.5,1.6-0.7,2.6-0.6c1,0.1,1.8,0.4,2.5,1c0.7,0.6,1,1.4,0.9,2.4
		c2-1,4.1-1.5,6.3-1.7c2.2-0.2,4.5,0.9,6.9,3.3c0.6,0.5,0.9,1.1,1,2c0.1,0.9,0,1.7-0.3,2.4c-0.3,0.8-0.7,1.3-1.3,1.7
		c-0.6,0.4-1.3,0.3-2.2-0.1c-0.8-1-2.1-1.6-4.1-2c-2-0.4-3.9,0.3-5.8,2l0.7,83.2c0.1,1.1-0.2,2.1-0.9,2.7c-0.7,0.7-1.5,1-2.4,1.1
		c-0.9,0-1.8-0.2-2.7-0.6C225.1,618.1,224.6,617.2,224.5,616.1z"/>
	<path d="M251,616.1c0-7.4,0-14,0-19.8c0-5.8,0-11.1,0-15.9c0-4.8,0-9.3,0-13.5c0-4.2,0-8.5-0.1-12.9c-0.1-4.4-0.2-8.9-0.4-13.7
		c-0.1-4.8-0.3-10.2-0.5-16.1c0-1.1,0.4-2,1.1-2.5c0.8-0.5,1.6-0.7,2.6-0.6c1,0.1,1.8,0.4,2.5,1c0.7,0.6,1,1.4,0.9,2.4
		c2-1,4.1-1.5,6.3-1.7c2.2-0.2,4.5,0.9,6.9,3.3c0.6,0.5,0.9,1.1,1,2c0.1,0.9,0,1.7-0.3,2.4c-0.3,0.8-0.7,1.3-1.3,1.7
		c-0.6,0.4-1.3,0.3-2.2-0.1c-0.8-1-2.1-1.6-4.1-2c-2-0.4-3.9,0.3-5.8,2l0.7,83.2c0.1,1.1-0.2,2.1-0.9,2.7c-0.7,0.7-1.5,1-2.4,1.1
		c-0.9,0-1.8-0.2-2.7-0.6C251.5,618.1,251.1,617.2,251,616.1z"/>
	<path d="M274.8,605.9c-0.4-5.5-0.6-11-0.8-16.7c-0.1-5.7-0.2-11.3-0.1-16.9c0.1-5.6,0.2-10.9,0.4-16c0.1-5.1,0.3-9.6,0.5-13.7
		c0.4-7.4,1.9-12.9,4.6-16.5c2.7-3.6,5.7-5.3,8.9-5.2c3.2,0.1,6,1.9,8.5,5.5c2.5,3.6,3.8,9,3.9,16.2c0.1,5.7,0.1,11.5,0.1,17.6
		c0,6.1,0,12-0.1,17.7c-0.1,5.7-0.2,11-0.4,15.9c-0.2,4.9-0.4,8.9-0.7,12.1c-0.4,4.2-1.8,7.4-4.2,9.7c-2.4,2.3-5,3.4-7.8,3.4
		c-1.4,0-2.9-0.3-4.4-0.9c-1.5-0.6-2.8-1.5-4-2.7c-1.2-1.1-2.2-2.5-3-4.2C275.4,609.6,274.9,607.8,274.8,605.9z M293.7,542.7
		c0-4.9-0.6-8.4-1.7-10.4c-1.1-2.1-2.3-3.1-3.7-3.2c-1.5-0.1-2.9,0.9-4.2,3.1c-1.3,2.2-2,5.7-2.2,10.6c-0.2,5.4-0.4,11-0.6,17
		c-0.2,5.9-0.3,11.7-0.3,17.3c0,5.6,0.1,10.9,0.2,15.8c0.1,4.9,0.5,9.1,0.9,12.4c0.3,2.1,0.9,3.7,1.9,4.7c1,1,2,1.5,3.2,1.5
		c1.2,0,2.4-0.5,3.4-1.6c1.1-1.1,1.7-2.4,1.9-4.2c0.4-3.7,0.7-8.1,0.9-13c0.2-4.9,0.3-10.2,0.4-15.8c0-5.6,0-11.3,0-17.2
		C293.7,553.8,293.7,548.1,293.7,542.7z"/>
	<path fill="#BCBF1D" d="M323.7,618.8c-3.4,0-6.3-0.8-8.7-2.5c-2.3-1.7-4.2-3.8-5.6-6.4c-1.4-2.6-2.3-5.4-2.7-8.6
		c-0.4-3.1-0.3-6.1,0.1-9c0.1-1.1,0.5-2,1.3-2.5c0.8-0.5,1.6-0.7,2.4-0.6c0.9,0.1,1.7,0.4,2.4,1c0.7,0.6,1.1,1.4,1.2,2.6
		c-0.4,3.5-0.3,6.5,0.3,8.9c0.6,2.4,1.4,4.3,2.4,5.8c1,1.5,2.1,2.5,3.4,3.2c1.2,0.6,2.4,0.9,3.4,0.9c3.1,0,5.5-0.9,7.2-2.7
		c1.7-1.8,2.8-4,3.3-6.8c0.6-3.4,0.6-6.6,0.1-9.5c-0.5-2.9-1.4-5.6-2.7-8.3c-1.3-2.6-2.9-5.2-4.9-7.8c-2-2.5-4.1-5.2-6.5-8.1
		c-1.6-1.8-3.2-3.7-4.7-5.7c-1.5-2-2.9-4.1-4.1-6.5c-1.2-2.4-2.2-5-3-7.8c-0.8-2.8-1.2-6-1.2-9.6c0-3,0.2-6.2,0.6-9.6
		c0.4-3.4,1.2-6.5,2.6-9.4c1.3-2.9,3.2-5.3,5.6-7.2c2.4-1.9,5.6-2.9,9.6-2.9c2.7,0,5,0.7,7,2c2,1.3,3.7,3.2,5,5.5
		c1.3,2.3,2.3,5,2.9,8c0.7,3,1,6.2,1,9.4c0,1.2-0.4,2.2-1.1,2.8c-0.7,0.6-1.5,1-2.4,1c-0.9,0-1.7-0.2-2.4-0.8
		c-0.7-0.6-1.1-1.4-1.1-2.6c0-3.4-0.3-6.1-0.9-8.3c-0.6-2.2-1.3-4-2.2-5.3c-0.9-1.3-1.8-2.3-2.9-2.9c-1.1-0.6-2.2-0.9-3.4-0.9
		c-2.3,0-4.2,0.7-5.6,2.2c-1.4,1.5-2.6,3.3-3.4,5.5c-0.8,2.2-1.4,4.4-1.7,6.8c-0.3,2.3-0.4,4.4-0.4,6.3c0,2.6,0.4,5,1.1,7.3
		c0.7,2.3,1.7,4.4,2.8,6.4c1.1,2,2.4,3.9,3.8,5.7c1.4,1.8,2.8,3.6,4.2,5.3c2.2,2.6,4.3,5.2,6.3,7.9c2,2.7,3.8,5.5,5.2,8.3
		c1.5,2.9,2.7,5.9,3.5,9.1c0.9,3.2,1.2,6.7,1.1,10.4c-0.2,5.7-1.9,10.5-5.2,14.2C333.5,617,329.2,618.8,323.7,618.8z"/>
	<path fill="#BCBF1D" d="M346.7,512.3c-0.1-1.1,0.2-1.8,0.9-2.4c0.7-0.5,1.6-0.8,2.5-0.9c1,0,1.9,0.2,2.7,0.6
		c0.9,0.5,1.3,1.2,1.4,2.2l9.9,90.7l10.9-90.5c0.2-1,0.7-1.7,1.4-2.1c0.8-0.4,1.6-0.6,2.4-0.4c0.9,0.1,1.6,0.5,2.3,1.1
		c0.7,0.6,1,1.5,0.9,2.5l-12.2,103c-0.3,0.8-1,1.3-2,1.7c-1.1,0.4-2.2,0.6-3.4,0.6c-1.2,0-2.4-0.2-3.4-0.6c-1-0.4-1.7-1.1-1.9-1.9
		c-1.5-11.4-2.9-21.6-4-30.5c-1.1-8.9-2.1-16.8-2.9-23.6c-0.8-6.8-1.5-12.8-2.1-18c-0.6-5.1-1.1-9.6-1.4-13.5
		c-0.4-3.9-0.7-7.3-1.1-10.1C347.4,517.4,347.1,514.7,346.7,512.3z"/>
	<path fill="#BCBF1D" d="M401.9,618.5c-5.9-0.3-10-4.8-12.3-13.6c-2.3-8.8-3.5-21.4-3.8-38c-0.3-19.5,1.2-33.9,4.6-43.1
		c3.4-9.2,7.8-13.8,13.4-13.8c2.7,0,4.8,0.7,6.4,2.2c1.6,1.4,2.8,3.2,3.6,5.2c0.8,2,1.3,4.1,1.6,6.4c0.2,2.3,0.3,4.2,0.2,5.8
		c0,1.1-0.4,1.8-1.1,2.4c-0.8,0.5-1.6,0.8-2.4,0.9c-0.9,0-1.6-0.1-2.3-0.4c-0.7-0.3-1-0.9-0.9-1.7c0.1-1.5,0.2-3.1,0.2-4.6
		c0-1.5,0-2.9-0.3-4.2c-0.2-1.2-0.7-2.3-1.5-3.2c-0.8-0.9-1.9-1.4-3.4-1.6c-1.9-0.2-3.6,1.2-5,4.1c-1.4,2.9-2.5,6.8-3.4,11.6
		c-0.9,4.8-1.6,10.3-2,16.5c-0.4,6.1-0.6,12.3-0.6,18.5c0,5.5,0.2,10.8,0.6,15.9c0.4,5.1,1,9.7,1.7,13.7c0.8,4,1.7,7.3,2.7,9.8
		c1.1,2.5,2.3,3.8,3.7,4c1.2,0.2,2.4-1,3.6-3.4c1.1-2.5,2.1-5.9,2.9-10.3c0.8-4.4,1.3-9.6,1.6-15.7c0.3-6,0.1-12.5-0.4-19.5
		l-8.3,0.1c-1-0.1-1.6-0.5-2-1.3c-0.4-0.8-0.6-1.5-0.6-2.3c0-1.1,0.3-1.8,0.9-2.3c0.6-0.5,1.3-0.8,2.2-1l6.8-0.1
		c1.8,0,3.2,0.1,4.2,0.4c1,0.3,1.8,0.8,2.3,1.4c0.5,0.7,0.8,1.6,0.9,2.7c0.1,1.1,0.2,2.5,0.3,4.2c0.1,1.4,0.2,3.8,0.3,7
		c0.1,3.3,0.1,6.9-0.1,11c-0.1,4.1-0.5,8.3-0.9,12.6c-0.5,4.4-1.2,8.3-2.3,11.9c-1.1,3.5-2.4,6.4-4.2,8.6
		C406.8,617.6,404.5,618.6,401.9,618.5z"/>
</g>
</svg>
