<?xml version="1.0" encoding="utf-8"?>
<!-- Generator: Adobe Illustrator 18.1.0, SVG Export Plug-In . SVG Version: 6.00 Build 0)  -->
<!DOCTYPE svg PUBLIC "-//W3C//DTD SVG 1.1//EN" "http://www.w3.org/Graphics/SVG/1.1/DTD/svg11.dtd" [
	<!ENTITY st0 "fill:#BCBF1D;">
	<!ENTITY st1 "fill:none;">
	<!ENTITY st2 "fill:#94C11C;">
	<!ENTITY st3 "fill:#FFFFFF;">
]>
<svg version="1.1" id="Layer_1" xmlns="http://www.w3.org/2000/svg" xmlns:xlink="http://www.w3.org/1999/xlink" x="0px" y="0px"
	 viewBox="-183 313.4 228 215.5" xml:space="preserve">
<g>
	<g>
		<path style="&st0;" d="M8.4,460.8c18.1-6.4,19.5-19.2,24.2-33.9c7.1-22.5,0-42.1-25.5-69.2c-25.5-27.1-79-19.1-79-19.1
			s-64.3,31.7-62.7,73.8c0.6,15.4,3.4,25,7.1,31.2c0,0.2,0,0.4,0,0.6c0,14.8-11.1,16-16,4.9c-4.9-11.1,9.4-2.9,9.4-2.9
			s6.6-8.9-11.3-12.7c-8.6-1.8-12.9,23-3.1,37.2c7.5,11,26.5,0.1,33.8-15.5c2.5,1.3,4.7,2.3,6.1,3.7c0,0,13.6,9.8,9.7,16.1
			c-4,6.5-3.1,16.3-10.8,29.2c-8.9,15-19.9,12.9-19.9,12.9c1.6,11.1,22.7-1.7,25.8-3.3c18.5-9.4,21.9-8.4,26.7-2.9
			c0.1,0.1,0.1,0.1,0.2,0.2c0,0.1,0,0.3,0,0.4c1.2,6.8-0.2,11.3-8,11.3c-1.8,0-7.8,0.4,0.6,3.5c5.2,1.9,12.9,0.6,17.2-6.2
			c3.7-5.8,9.7-10.1,16.7-10.8c5.7,0.8,12.9,3,20.1,5.9c8.5,4.6,14.2,11.1,19.6,12.9c7.4,2.5,14-4.5,11.1-4.1
			c-10.3,1.2-11.9-4.1-13.9-7c-2.3-3.2-1.5-5.7-2.4-8c3.6-1.2,16.1,7.7,25.7,9.2c18.5,2.9,18.9-3.3,18.9-3.3c0-1.2-3.2,0.3-8.6-1.2
			c-1.8-0.5-5.4-2.4-7-3.7c-7.2-5.7-11.2-11.8-14.2-18.4c-1.7-3.9-4.7-8-3.5-12.3C-2.5,472.4-0.5,464,8.4,460.8z M-87.9,399.2
			c-27.9,3.3-32-15.6-32-15.6c25.4-9.8,38.5,12.3,38.5,12.3L-87.9,399.2z M-24.7,400c0,0,27.9-23,47.6-8.2c0,0,7.4,2.5-8.2,10.7
			C-0.9,410.7-24.7,400-24.7,400z"/>
		<path style="&st1;" d="M14.7,402.5c15.6-8.2,8.2-10.7,8.2-10.7C3.2,377-24.7,400-24.7,400S-0.9,410.7,14.7,402.5z"/>
		<path style="&st1;" d="M-119.8,383.6c0,0,4.1,18.9,32,15.6l6.6-3.3C-81.3,395.9-94.4,373.8-119.8,383.6z"/>
	</g>
	<g>
		<path style="&st1;" d="M14.7,402.5c15.6-8.2,8.2-10.7,8.2-10.7C3.2,377-24.7,400-24.7,400S-0.9,410.7,14.7,402.5z"/>
		<path style="&st1;" d="M-119.8,383.6c0,0,4.1,18.9,32,15.6l6.6-3.3C-81.3,395.9-94.4,373.8-119.8,383.6z"/>
	</g>
	<path style="&st2;" d="M-13.9,526.7c-0.1,0.3-0.1,0.5-0.2,0.8C-14.7,528.4-13.9,527.9-13.9,526.7z"/>
	<ellipse style="&st3;" cx="-97.5" cy="390.6" rx="27.7" ry="12.3"/>
	<ellipse style="&st3;" cx="0.9" cy="396.1" rx="27.7" ry="12.3"/>
	<g>
		<path style="&st3;" d="M-55.9,442c-10.8,0-19.5,8.7-19.5,19.5c0,10.8,8.7,19.5,19.5,19.5c10.8,0,19.5-8.7,19.5-19.5
			C-36.4,450.7-45.1,442-55.9,442z"/>
		<path style="&st1;" d="M-55.9,442c-10.8,0-19.5,8.7-19.5,19.5c0,10.8,8.7,19.5,19.5,19.5c10.8,0,19.5-8.7,19.5-19.5
			C-36.4,450.7-45.1,442-55.9,442z"/>
		<g>
			<path style="&st1;" d="M-55.9,442c-10.8,0-19.5,8.7-19.5,19.5c0,10.8,8.7,19.5,19.5,19.5c10.8,0,19.5-8.7,19.5-19.5
				C-36.4,450.7-45.1,442-55.9,442z"/>
			<path d="M-29.6,459c-1.3-13.4-12.5-23.9-26.3-23.9c-13.8,0-25.1,10.6-26.3,24.1c-4.7,0.3-21.2,1.2-25.4-0.2
				c-4.9-1.6,8.9,7.9,7.6,17c-0.8,5.3,19,2.6,23.5,2c4.8,6,12.3,9.9,20.6,9.9c7.9,0,15-3.5,19.9-9.1c5.4,0.7,31.2,3.8,31.2,1.6
				c0-4.3,7.4-16.3,7.4-16.3C-8.5,465.4-22.9,460.8-29.6,459z M-55.9,481c-10.8,0-19.5-8.7-19.5-19.5c0-10.8,8.7-19.5,19.5-19.5
				c10.8,0,19.5,8.7,19.5,19.5C-36.4,472.3-45.1,481-55.9,481z"/>
		</g>
	</g>
	<polyline style="&st3;" points="-79.6,409.4 -75.6,421.3 -70.7,410.9 	"/>
	<polyline style="&st3;" points="-53.1,413.4 -50.1,423.8 -44.3,413.6 	"/>
	<polyline points="-67.7,453.3 -67,448.1 -45.2,449 -58.1,469.3 -45.8,469.6 -47.1,473.9 -67.7,474.2 -54.4,453.6 -67.4,453.6 	"/>
	<path d="M31.9,356.9c-1.2-0.8-1.6-0.8-2.8-1.3c-4.7-1.6-16.8-4.7-31.7-8.3c0.3-3.7,1.5-14.3,1.5-17.2c0-0.4,0.1-0.4-0.2-1.5
		c-0.5-1.3-1-1.5-1.2-1.7c-0.8-0.6-1-0.6-1.5-0.8c-3.1-1.3-12.9-4.3-22.8-7.2c-5-1.4-9.9-2.8-14.1-3.8c-4.2-1-7.2-1.7-9.4-1.7
		c-0.4,0-0.8,0-1.5,0.2c-0.6,0.1-2.3,0.9-2.6,3c0,0,0,0,0,0.2c-0.4,1.5-2,6.1-3.4,10.1c-1.2,3.3-2.3,6.3-2.7,7.3
		c-3.4-0.7-6.6-1.4-9.6-2c-10.9-2.1-18.9-3.5-22.6-3.6c-0.5,0-1,0-1.6,0.1c-0.5,0.2-1.6,0.1-2.7,1.9l0,0c-0.1,0.1-0.1,0.2-0.2,0.4
		c0,0,0,0,0,0h0c-0.1,0.3-0.3,0.8-0.3,1.4c0.3,2.5,1.4,2.8,1.8,3.2c1.8,1.2,4.1,1.8,7.9,3c12.9,3.8,40,9.8,65,15
		c12.5,2.6,24.5,5,33.8,6.7c9.3,1.7,15.6,2.8,18.3,2.8l0.2,0l0.2,0c0.3,0,0.6,0,1.2-0.2c0.3-0.1,0.7-0.3,1.3-0.8
		c0.6-0.5,1.2-1.5,1.1-2.6C33.1,357.4,32.1,357.2,31.9,356.9z"/>
	<path d="M-142.8,434.5l-0.3,1.2l-39.9-89.4l31.9,92.1c-2.6,1.3-5.5,3.4-8.2,6.7c-4.9,5.9,2.6,6.2,12.1,2.4l5.5,12l5.8-0.9
		l-6.1-13.6c3-1.6,6.1-3.6,8.8-5.9C-119.8,428-142.8,434.5-142.8,434.5z"/>
	<g>
		<path style="&st0;" d="M-132.9,439.1c9.7,15.5-7.1,25.6-17.8,25.6c-8.2,0-12.7-12-6.2-7.1c8.6,6.5,16-6.5,16-6.5s1.4-3.9,1-7.5"/>
		<path style="&st3;" d="M-160.6,457.3c0-0.3,0.1-0.7,0.3-1l0,0c0.2-0.3,0.6-0.5,1-0.5l0,0c0.8,0,1.6,0.4,2.8,1.3l0,0
			c1.6,1.2,3.2,1.7,4.6,1.7l0,0c5.8,0.1,10.5-7.9,10.5-8l0,0c0,0,0.9-1.5,0.9-4.4l0,0c0-0.4-0.2-1.8-0.2-2.1l1.1-0.8
			c0.3,2.1,0.4,2.5,0.4,2.9l0,0c0,3.1-1,4.9-1.1,5l0,0c-0.1,0-4.7,8.5-11.5,8.6l0,0c-1.7,0-3.5-0.6-5.3-1.9l0,0
			c-1.1-0.8-1.8-1.1-2.1-1.1l0,0c-0.1,0-0.1,0-0.1,0l0,0c0,0,0,0.1,0,0.2l0,0c0,0.7,0.8,2.6,2.4,4.1l0,0c1.6,1.5,3.7,2.8,6.3,2.8
			l0,0c4.2,0,9.3-1.5,13.4-4.2l0,0c4.1-2.7,7-6.6,7-11.4l0,0c0-2.3-1.3-6.4-3-9.4c-0.1-0.2,0.9-0.8,1-0.7c1.8,3.1,3.2,7.5,3.2,10.1
			l0,0c-0.1,10.7-12.9,16.8-21.7,16.8l0,0C-156.6,465.2-160.5,459.9-160.6,457.3L-160.6,457.3z"/>
	</g>
	<g>
		<path style="&st0;" d="M30.6,422.9c0,0,20.4,13.5,11.7,20.1c-9.7,7.3-30,12.4-20.4,20.9c7.6,6.7,7.7-6.8,7.5-8.4
			c-0.3-2.6,7.4,1.7,5.8,9.4c-3.7,17.6-26.7,3.1-27.9-5.4c-1.2-8.6,7.5-5.8,15.7-15.9c0,0,3.8-2.2,3.1-9.4"/>
		<path style="&st3;" d="M26.2,473.8c-8.3-0.1-18.5-8.2-19.4-14.2l0,0c-0.1-0.6-0.1-1.1-0.1-1.6l0,0c0-3.7,2.4-5.3,5.3-6.8l0,0
			c3-1.6,6.8-3.4,10.6-8l0,0l0.1-0.1l0.1-0.1c0,0,0.7-0.4,1.4-1.5l0,0c0.7-1.1,1.5-2.9,1.5-5.7l0,0c0-0.5,0-1-0.1-1.6l0,0l1.2-0.1
			c0,0.6,0.1,1.1,0.1,1.7l0,0c0,5.6-2.8,7.8-3.4,8.2l0,0c-3.9,4.8-7.9,6.7-10.9,8.3l0,0c-3,1.6-4.6,2.6-4.7,5.7l0,0
			c0,0.4,0,0.9,0.1,1.4l0,0c0.6,5,10.7,13.3,18.2,13.2l0,0c3.9,0,7.1-2,8.4-7.8l0,0c0.1-0.7,0.2-1.3,0.2-1.9l0,0
			c0-2.3-0.9-4.2-2-5.5l0,0c-1.1-1.3-2.4-2-2.8-2l0,0l0,0c0,0,0,0,0,0.1l0,0c0,0.2,0,0.6,0,1.2l0,0c-0.1,2.8-0.3,9.4-4.5,9.7l0,0
			c-1.2,0-2.5-0.6-4.1-2l0,0c-1.8-1.6-2.7-3.2-2.7-4.8l0,0c0.3-6.9,15.4-11,23.2-17l0,0c1.4-1.1,1.9-2.2,1.9-3.5l0,0
			c0.1-3-3.3-7.1-6.7-10.2l0,0c-3.3-3-6.7-5.3-6.8-5.4l0,0l0.7-1c0,0.1,13.9,9,14.1,16.5l0,0c0,1.7-0.8,3.3-2.4,4.5l0,0
			c-8.1,6-23,10.9-22.7,16l0,0c0,1.1,0.6,2.4,2.3,3.9l0,0c1.4,1.3,2.5,1.7,3.2,1.7l0,0c1.2,0,2.1-1.2,2.6-3.1l0,0
			c0.5-1.8,0.7-4.1,0.7-5.4l0,0c0-0.5,0-0.9,0-1l0,0c0-0.1,0-0.1,0-0.2l0,0c0-0.3,0.1-0.7,0.4-0.9l0,0c0.3-0.2,0.6-0.3,0.9-0.3l0,0
			c2.1,0.1,5.9,3.4,6,8.7l0,0c0,0.7-0.1,1.4-0.2,2.2l0,0c-1.3,6.2-5.1,8.8-9.5,8.8l0,0C26.2,473.8,26.2,473.8,26.2,473.8L26.2,473.8
			z M30.2,423.4C30.2,423.4,30.2,423.4,30.2,423.4L30.2,423.4L30.2,423.4L30.2,423.4L30.2,423.4z"/>
	</g>
	<g>
		<path style="&st1;" d="M-109.2,381.2c0.3,0.1,0.6,0.3,0.9,0.5c1.6,1.4,0.4,9.9-1.6,14.2c4.8,2.8,11.8,4.6,22.1,3.4l6.6-3.3
			C-81.3,395.9-90.8,379.9-109.2,381.2z"/>
		<path style="&st1;" d="M-10.8,391.5c-8.1,3.8-13.9,8.5-13.9,8.5s6,2.7,13.9,4.3C-11.3,400.9-11,394.2-10.8,391.5z"/>
		<path style="&st1;" d="M-112.1,381.6c0,0,0.1-0.1,0.3-0.2c-2.6,0.4-5.3,1.1-8.1,2.2c0,0,1.3,6.1,7.6,10.7
			C-112.6,389.6-112.1,381.6-112.1,381.6z"/>
		<path style="&st1;" d="M22.9,391.8c-9.5-7.2-21-5.4-30.3-1.8c0.1,0.1,0.2,0.1,0.4,0.2c1.7,1.4,0.3,10.2-1.7,14.4
			c7.5,1.3,16.3,1.5,23.5-2.2C30.2,394.3,22.9,391.8,22.9,391.8z"/>
		<path d="M23.1,377c-2.5-0.8-66,13.9-76.5,10.7c-18.9-5.7-59.9-18.9-59.9-18.9c-6.6,0.8-22.6,27.9-19.7,30.3
			c5.4,4.6,42.6,7.4,70.5,13.1c27.9,5.7,97.6-6.2,97.6-6.2C34.4,391.4,25.5,377.9,23.1,377z M-119.8,383.6c2.9-1.1,5.6-1.8,8.1-2.2
			c-0.2,0.1-0.3,0.2-0.3,0.2s-0.5,8-0.2,12.7C-118.5,389.7-119.8,383.6-119.8,383.6z M-87.9,399.2c-5.2,1.3-17.3-0.6-22.1-3.4
			c2-4.3,3.2-12.8,1.6-14.2c-0.3-0.2-0.6-0.4-0.9-0.5c18.4-1.2,27.9,14.7,27.9,14.7S-82.6,397.8-87.9,399.2z M-24.7,400
			c0,0,5.8-4.7,13.9-8.5c-0.1,2.7-0.4,9.4,0,12.8C-18.7,402.7-24.7,400-24.7,400z M14.7,402.5c-7.1,3.8-16,3.5-23.5,2.2
			c2.1-4.2,3.4-13,1.7-14.4c-0.1-0.1-0.2-0.2-0.4-0.2c9.3-3.7,20.8-5.4,30.3,1.8C22.9,391.8,30.2,394.3,14.7,402.5z"/>
	</g>
</g>
</svg>
